# xmcd CD database file
#
# Track frame offsets:
#	150
#	19708
#	37568
#	56198
#	78728
#	94393
#	112238
#	130121
#	148412
#	166784
#	190388
#	211080
#
# Disc length: 3028 seconds
#
# Revision: 0
# Processed by: cddbd v1.5.2PL0 Copyright (c) Steve Scherf et al.
# Submitted via: CDex 1.51
#
DISCID=a90bd20c
DTITLE=Bolero Jazz - Bolero Jazz
DYEAR=1991
DGENRE=Jazz
TTITLE0=Delirio
TTITLE1=Inolvidable
TTITLE2=La noche de Anoche
TTITLE3=Alma con Alma
TTITLE4=Juguete
TTITLE5=Cómo Fue?
TTITLE6=Imágenes
TTITLE7=Si me comprendieras
TTITLE8=Tú me acostumbraste
TTITLE9=Contigo aprendí
TTITLE10=Añorado encuentro
TTITLE11=No Puedo ser feliz
EXTD=YEAR: 1991
EXTT0=
EXTT1=
EXTT2=
EXTT3=
EXTT4=
EXTT5=
EXTT6=
EXTT7=
EXTT8=
EXTT9=
EXTT10=
EXTT11=
PLAYORDER=
